<svg id="Ebene_1" data-name="Ebene 1" xmlns="http://www.w3.org/2000/svg" viewBox="0 0 512 512"><defs><style>.cls-1{fill:#2c657d;}</style></defs><title>plugin_icon</title><g id="TsV3Pa.tif"><path class="cls-1" d="M511.4,255.88c.81,138.41-112.25,254.9-254.84,255.12C115.87,511.22.24,396.55,1,253.41,1.75,114.41,116.18.64,256.37.42,397.08.19,512.42,115.7,511.4,255.88ZM256.47,36.82c-120.6,0-219.08,97.75-219,218.85C37.51,376.09,134,473.46,254.16,474.51,376.33,475.58,475.21,377,475.23,256,475.25,135.29,377,36.83,256.47,36.82Z"/><path class="cls-1" d="M193.39,256q0-39.7,0-79.41c0-2,0-4,.07-5.92.73-13.13,10.51-19.09,22.24-13s23.41,13.06,35,19.77q55.32,31.94,110.58,64c12.88,7.46,12.94,20.87,0,28.39q-69.82,40.54-139.79,80.89c-3.7,2.13-7.43,4.59-11.89,5.07-8.8.95-15-3.85-15.9-12.71a116.91,116.91,0,0,1-.31-12.43Q193.37,293.37,193.39,256Z"/></g></svg>